<svg width="28" height="28" viewBox="0 0 28 28" fill="none" xmlns="http://www.w3.org/2000/svg">
<g clip-path="url(#clip0_1122_7092)">
<path d="M28 14.0316C28 21.7427 21.7427 28.0632 13.9684 28.0632C6.25734 28 0 21.7427 0 14.0316C0 6.25734 6.25734 0 14.0316 0C21.7427 0 28 6.25734 28 14.0316Z" fill="black"/>
<path d="M14.0316 27.8103C19.5937 27.8103 24.3973 24.5236 26.5463 19.7832H1.45374C3.60272 24.5236 8.40633 27.8103 14.0316 27.8103Z" fill="#D81E05"/>
<path d="M14.0316 0.189453C8.40633 0.189453 3.60272 3.47613 1.45374 8.21654H26.5463C24.3973 3.47613 19.5937 0.189453 14.0316 0.189453Z" fill="#D81E05"/>
<path d="M0.189636 14.0315C0.189636 16.1173 0.632074 18.0134 1.45374 19.7832H26.5463C27.368 18.0134 27.8104 16.0541 27.8104 14.0315C27.8104 11.9457 27.368 10.0495 26.5463 8.27979H1.45374C0.632074 9.98633 0.189636 11.9457 0.189636 14.0315Z" fill="white"/>
</g>
<defs>
<clipPath id="clip0_1122_7092">
<rect width="28" height="28" fill="white"/>
</clipPath>
</defs>
</svg>
