<svg width="28" height="28" viewBox="0 0 28 28" fill="none" xmlns="http://www.w3.org/2000/svg">
<g clip-path="url(#clip0_1113_8003)">
<path d="M28 14.0316C28 21.7427 21.7427 28.0632 13.9684 28.0632C6.25734 28 0 21.7427 0 14.0316C0 6.25734 6.25734 0 14.0316 0C21.7427 0 28 6.25734 28 14.0316Z" fill="black"/>
<path d="M0.189697 14.0317C0.189697 18.5824 2.33868 22.5644 5.68857 25.0926V2.9707C2.33868 5.49892 0.189697 9.48086 0.189697 14.0317Z" fill="#E31937"/>
<path d="M27.8104 14.0317C27.8104 9.48086 25.6614 5.49892 22.3115 2.9707V25.0926C25.6614 22.5644 27.8104 18.5192 27.8104 14.0317Z" fill="#E31937"/>
<path d="M5.68848 2.97049V25.0924C8.02708 26.7989 10.8713 27.8734 13.9684 27.8734C17.0655 27.8734 19.9729 26.8621 22.2483 25.0924V2.97049C19.9097 1.26394 17.0655 0.189453 13.9684 0.189453C10.8713 0.189453 8.02708 1.20074 5.68848 2.97049Z" fill="white"/>
<path d="M13.9684 22.0586H14.2212L14.158 18.2662C14.158 18.1398 14.3476 18.0134 14.4108 18.0134C15.6117 18.1398 16.623 18.2662 17.8239 18.4559L17.5079 17.4446C17.4447 17.255 17.5079 17.0653 17.6343 16.9389L21.0474 14.0315L20.3521 13.6523C20.0361 13.5258 20.0993 13.3362 20.2257 12.8938L20.7313 10.9344L18.772 11.3769C18.5824 11.3769 18.4559 11.2504 18.3927 11.1872L18.1399 10.2392L16.5598 12.0721C16.307 12.3881 15.8645 12.3881 16.0541 11.6929L16.7494 7.96376L15.8645 8.46941C15.6117 8.59582 15.3589 8.65902 15.2325 8.4062L13.9684 6.00439L12.7042 8.4062C12.5778 8.65902 12.325 8.65902 12.0722 8.46941L11.1873 7.96376L11.8826 11.6929C12.009 12.3881 11.5666 12.3881 11.3769 12.0721L9.7968 10.2392L9.48077 11.1872C9.48077 11.3137 9.29116 11.4401 9.10154 11.3769L7.07897 10.9344L7.58461 12.8938C7.71102 13.3362 7.77423 13.5258 7.4582 13.6523L6.76294 14.0315L10.176 16.9389C10.3024 17.0653 10.3656 17.255 10.3024 17.4446L10.1128 18.4559C11.3137 18.3295 12.325 18.203 13.5259 18.0134C13.6523 18.0134 13.7787 18.1398 13.7787 18.2662L13.7155 22.0586H13.9684Z" fill="#E31937"/>
</g>
<defs>
<clipPath id="clip0_1113_8003">
<rect width="28" height="28" fill="white"/>
</clipPath>
</defs>
</svg>
