<svg width="28" height="28" viewBox="0 0 28 28" fill="none" xmlns="http://www.w3.org/2000/svg">
<g clip-path="url(#clip0_1113_9989)">
<path d="M28 14.0316C28 21.7427 21.7427 28.0632 14.0316 28.0632C6.25734 28 0 21.7427 0 14.0316C0 6.25734 6.25734 0 14.0316 0C21.7427 0 28 6.25734 28 14.0316Z" fill="black"/>
<path d="M27.8103 14.0314C27.8103 21.6161 21.6162 27.8102 14.0316 27.8102C6.38371 27.8102 0.189575 21.6161 0.189575 14.0314C0.189575 6.38358 6.38371 0.189453 14.0316 0.189453C21.6162 0.189453 27.8103 6.38358 27.8103 14.0314Z" fill="#DE2910"/>
<path d="M6.32052 5.625L7.2686 8.40604H10.1128L7.77425 10.1126L8.65912 12.8304L6.32052 11.1239L3.98192 12.8304L4.8668 10.1126L2.5282 8.40604H5.43565L6.32052 5.625Z" fill="#FFDE00"/>
<path d="M13.9052 4.23438L13.842 5.18246L14.7269 5.49848L13.7788 5.75131L13.7156 6.69939L13.2099 5.87772L12.3251 6.13054L12.8939 5.37207L12.3883 4.61361L13.2732 4.92963L13.9052 4.23438Z" fill="#FFDE00"/>
<path d="M17.1287 7.26845L16.6863 8.15332L17.3815 8.78538L16.4334 8.65897L15.991 9.48064L15.8646 8.59576L14.9165 8.40614L15.7382 7.96371L15.6118 7.01562L16.307 7.71088L17.1287 7.26845Z" fill="#FFDE00"/>
<path d="M16.1806 11.1235L16.4334 12.0716H17.3815L16.623 12.6405L16.9391 13.5253L16.1806 12.9565L15.4221 13.5253L15.675 12.6405L14.9165 12.0716H15.8646L16.1806 11.1235Z" fill="#FFDE00"/>
<path d="M13.9052 14.0312L13.842 15.0425L14.7269 15.3586L13.7788 15.6114L13.7156 16.5595L13.2099 15.7378L12.2618 15.9906L12.8939 15.2322L12.3883 14.4737L13.2731 14.7897L13.9052 14.0312Z" fill="#FFDE00"/>
</g>
<defs>
<clipPath id="clip0_1113_9989">
<rect width="28" height="28" fill="white"/>
</clipPath>
</defs>
</svg>
