<svg width="28" height="28" viewBox="0 0 28 28" fill="none" xmlns="http://www.w3.org/2000/svg">
<g clip-path="url(#clip0_1113_7937)">
<path d="M14.0316 28.0632C21.781 28.0632 28.0632 21.781 28.0632 14.0316C28.0632 6.28216 21.781 0 14.0316 0C6.28216 0 0 6.28216 0 14.0316C0 21.781 6.28216 28.0632 14.0316 28.0632Z" fill="black"/>
<path d="M0.568957 17.192H27.4313C27.6209 16.4967 27.6841 15.8014 27.7473 15.043H0.25293C0.316135 15.8014 0.37934 16.4967 0.568957 17.192Z" fill="white"/>
<path d="M2.33865 21.4263H25.5982C26.0407 20.7311 26.4199 20.0358 26.7359 19.2773H1.26416C1.58019 20.0358 1.95942 20.7943 2.33865 21.4263Z" fill="white"/>
<path d="M6.63659 25.6612H21.3635C22.3115 25.0291 23.1964 24.3339 23.9549 23.5122H4.04517C4.80363 24.3971 5.68851 25.0923 6.63659 25.6612Z" fill="white"/>
<path d="M21.3635 2.33838H6.63659C5.68851 2.90723 4.80363 3.60249 4.04517 4.42416H23.9549C23.1964 3.60249 22.3115 2.90723 21.3635 2.33838Z" fill="white"/>
<path d="M1.26411 19.3409H26.7991C27.0519 18.6456 27.3047 17.9504 27.4944 17.1919H0.568848C0.758464 17.9504 0.94808 18.6456 1.26411 19.3409Z" fill="#BF0A30"/>
<path d="M4.04517 23.5753H23.9549C24.5869 22.9432 25.1558 22.1847 25.6614 21.4263H2.33862C2.84427 22.1847 3.41312 22.9432 4.04517 23.5753Z" fill="#BF0A30"/>
<path d="M14.0318 27.8101C16.7496 27.8101 19.2778 27.0517 21.3636 25.6611H6.63672C8.7857 27.0517 11.3139 27.8101 14.0318 27.8101Z" fill="#BF0A30"/>
<path d="M0.568848 10.8082H27.4312C27.2415 10.0497 27.0519 9.35444 26.7359 8.65918H1.26411C0.94808 9.35444 0.758464 10.0497 0.568848 10.8082Z" fill="#BF0A30"/>
<path d="M0.189697 14.0315C0.189697 14.4108 0.189697 14.7268 0.252903 15.106H27.8105C27.8105 14.7268 27.8737 14.4108 27.8737 14.0315C27.8737 13.6523 27.8737 13.3363 27.8105 12.957H0.252903C0.189697 13.2731 0.189697 13.6523 0.189697 14.0315Z" fill="#BF0A30"/>
<path d="M4.04517 4.42432C3.41312 5.05637 2.84427 5.81484 2.33862 6.5733H25.5982C25.1558 5.81484 24.5869 5.05637 23.9549 4.42432H4.04517Z" fill="#BF0A30"/>
<path d="M14.0318 0.189453C11.3139 0.189453 8.78573 0.947918 6.69995 2.33844H21.4268C19.2146 0.947918 16.6864 0.189453 14.0318 0.189453Z" fill="#BF0A30"/>
<path d="M0.25293 12.9571H27.8105C27.7473 12.1986 27.6209 11.5034 27.4945 10.8081H0.568957C0.37934 11.5034 0.316135 12.1986 0.25293 12.9571Z" fill="white"/>
<path d="M1.26416 8.65875H26.7992C26.4831 7.90028 26.1039 7.20503 25.6615 6.50977H2.33865C1.95942 7.20503 1.58019 7.96349 1.26416 8.65875Z" fill="white"/>
<path d="M13.9685 0.189453C6.32062 0.189453 0.189697 6.38358 0.189697 14.0314C0.189697 14.4107 0.189697 14.7267 0.252903 15.1059H14.0317V0.189453H13.9685Z" fill="#002868"/>
<path d="M1.01145 9.22754C1.01145 9.29074 0.948242 9.35395 0.948242 9.35395L1.01145 9.22754Z" fill="white"/>
<path d="M0.884956 9.66992C0.82175 9.79633 0.82175 9.98595 0.758545 10.1124L0.884956 9.66992Z" fill="white"/>
<path d="M1.51712 14.2841L1.13789 13.9681L0.695449 14.2841L0.885065 13.7785L0.442627 13.5257H0.94827L1.13789 13.02L1.2643 13.5257H1.76994L1.39071 13.7785L1.51712 14.2841Z" fill="white"/>
<path d="M3.41336 12.1982L2.97092 11.8822L2.59169 12.1982L2.7181 11.7558L2.33887 11.4397H2.84451L2.97092 10.9341L3.16054 11.4397H3.66618L3.22374 11.7558L3.41336 12.1982Z" fill="white"/>
<path d="M3.28695 7.52116L3.41336 8.0268L3.03413 7.71078L2.59169 8.0268L2.78131 7.52116L2.33887 7.20513H2.84451L3.03413 6.7627L3.16054 7.20513H3.66618L3.28695 7.52116Z" fill="white"/>
<path d="M5.30936 14.2841L4.93012 13.9681L4.48769 14.2841L4.6773 13.7785L4.23486 13.5257H4.74051L4.93012 13.02L5.05653 13.5257H5.56218L5.18294 13.7785L5.30936 14.2841Z" fill="white"/>
<path d="M5.37256 9.54368L5.18294 9.67009L5.30936 10.1757L4.93012 9.8597L4.48769 10.1757L4.6773 9.67009L4.48769 9.54368L4.23486 9.41726H4.74051L4.93012 8.91162L5.05653 9.41726H5.56218L5.37256 9.54368Z" fill="white"/>
<path d="M5.18294 5.37223L5.30936 5.87788L4.93012 5.56185L4.48769 5.87788L4.6773 5.37223L4.23486 5.05621H4.74051L4.93012 4.61377L5.05653 5.05621H5.56218L5.18294 5.37223Z" fill="white"/>
<path d="M7.14239 12.3881L6.76316 12.0721L6.38393 12.3881L6.51034 11.8825L6.1311 11.5665H6.63675L6.76316 11.124L6.88957 11.5665H7.39521L7.01598 11.8825L7.14239 12.3881Z" fill="white"/>
<path d="M7.07918 7.64763L7.2056 8.15327L6.82636 7.83724L6.38393 8.15327L6.57354 7.64763L6.1311 7.3948H6.63675L6.82636 6.88916L6.95277 7.3948H7.45842L7.07918 7.64763Z" fill="white"/>
<path d="M7.07921 3.41276L7.26883 3.8552L6.82639 3.60238L6.44716 3.8552L6.57357 3.41276L6.19434 3.09674H6.69998L6.82639 2.6543L7.01601 3.09674H7.52165L7.07921 3.41276Z" fill="white"/>
<path d="M9.10184 14.2841L8.6594 13.9681L8.28017 14.2841L8.40658 13.7785L8.02734 13.5257H8.53299L8.6594 13.02L8.84901 13.5257H9.35466L8.91222 13.7785L9.10184 14.2841Z" fill="white"/>
<path d="M9.10184 9.54368L8.91222 9.67009L9.10184 10.1757L8.6594 9.8597L8.28017 10.1757L8.40658 9.67009L8.28017 9.54368L8.02734 9.41726H8.53299L8.6594 8.91162L8.84901 9.41726H9.35466L9.10184 9.54368Z" fill="white"/>
<path d="M8.91222 5.37223L9.10184 5.87788L8.6594 5.56185L8.28017 5.87788L8.40658 5.37223L8.02734 5.05621H8.53299L8.6594 4.61377L8.84901 5.05621H9.35466L8.91222 5.37223Z" fill="white"/>
<path d="M10.9348 12.3881L10.5556 12.0721L10.1132 12.3881L10.3028 11.8825L9.86035 11.5665H10.366L10.5556 11.124L10.682 11.5665H11.1877L10.8084 11.8825L10.9348 12.3881Z" fill="white"/>
<path d="M10.8082 7.64763L10.9978 8.15327L10.5554 7.83724L10.1762 8.15327L10.3026 7.64763L9.92334 7.3948H10.429L10.5554 6.88916L10.745 7.3948H11.2507L10.8082 7.64763Z" fill="white"/>
<path d="M10.8714 3.41276L10.9979 3.8552L10.6186 3.60238L10.1762 3.8552L10.3658 3.41276L9.98657 3.09674H10.429L10.6186 2.6543L10.745 3.09674H11.2507L10.8714 3.41276Z" fill="white"/>
<path d="M12.8941 14.2841L12.4516 13.9681L12.0724 14.2841L12.1988 13.7785L11.8196 13.5257H12.3252L12.4516 13.02L12.6413 13.5257H13.1469L12.7045 13.7785L12.8941 14.2841Z" fill="white"/>
<path d="M12.8941 9.54368L12.7045 9.67009L12.8941 10.1757L12.4516 9.8597L12.0724 10.1757L12.1988 9.67009L12.0092 9.54368L11.8196 9.41726H12.3252L12.4516 8.91162L12.6413 9.41726H13.1469L12.8941 9.54368Z" fill="white"/>
<path d="M12.7045 5.37223L12.8941 5.87788L12.4516 5.56185L12.0724 5.87788L12.1988 5.37223L11.8196 5.05621H12.3252L12.4516 4.61377L12.6413 5.05621H13.1469L12.7045 5.37223Z" fill="white"/>
<path d="M12.7045 1.13737L12.8941 1.64301L12.4516 1.32699L12.0724 1.64301L12.1988 1.13737L11.8196 0.88455H12.3252L12.4516 0.378906L12.6413 0.88455H13.1469L12.7045 1.13737Z" fill="white"/>
<path d="M8.65926 1.32704L9.03849 1.64307L8.91208 1.13742L8.97529 1.07422C8.78567 1.13742 8.53285 1.26383 8.34323 1.32704L8.28003 1.57986L8.65926 1.32704Z" fill="white"/>
<path d="M8.6594 4.61377L8.53299 5.05621H8.02734L8.40658 5.37223L8.28017 5.87788L8.6594 5.56185L9.10184 5.87788L8.91222 5.37223L9.35466 5.05621H8.84901L8.6594 4.61377Z" fill="white"/>
<path d="M8.6594 8.91162L8.53299 9.41726H8.02734L8.28017 9.54368L8.40658 9.67009L8.28017 10.1757L8.6594 9.8597L9.10184 10.1757L8.91222 9.67009L9.10184 9.54368L9.35466 9.41726H8.84901L8.6594 8.91162Z" fill="white"/>
<path d="M8.84901 13.5257L8.6594 13.02L8.53299 13.5257H8.02734L8.40658 13.7785L8.28017 14.2841L8.6594 13.9681L9.10184 14.2841L8.91222 13.7785L9.35466 13.5257H8.84901Z" fill="white"/>
<path d="M4.93012 4.61377L4.74051 5.05621H4.23486L4.6773 5.37223L4.48769 5.87788L4.93012 5.56185L5.30936 5.87788L5.18294 5.37223L5.56218 5.05621H5.05653L4.93012 4.61377Z" fill="white"/>
<path d="M4.93012 8.91162L4.74051 9.41726H4.23486L4.48769 9.54368L4.6773 9.67009L4.48769 10.1757L4.93012 9.8597L5.30936 10.1757L5.18294 9.67009L5.37256 9.54368L5.56218 9.41726H5.05653L4.93012 8.91162Z" fill="white"/>
<path d="M5.05653 13.5257L4.93012 13.02L4.74051 13.5257H4.23486L4.6773 13.7785L4.48769 14.2841L4.93012 13.9681L5.30936 14.2841L5.18294 13.7785L5.56218 13.5257H5.05653Z" fill="white"/>
<path d="M0.695557 10.1756C0.758762 10.1123 0.758762 10.1756 0.695557 10.1756V10.1756Z" fill="white"/>
<path d="M1.13789 8.91162L1.01147 9.22765C1.07468 9.16444 1.07468 9.03803 1.13789 8.91162Z" fill="white"/>
<path d="M1.51701 10.1757L1.3906 9.67009L1.58022 9.54368L1.83304 9.35406H1.26419L1.13778 8.91162C1.07457 9.03803 1.07457 9.10124 1.01137 9.22765L0.948161 9.35406C0.884956 9.48047 0.884956 9.54368 0.82175 9.67009L0.758545 10.1125C0.758545 10.1125 0.758545 10.1125 0.758545 10.1757L1.13778 9.8597L1.51701 10.1757Z" fill="white"/>
<path d="M1.2643 13.5257L1.13789 13.02L0.94827 13.5257H0.442627L0.885065 13.7785L0.695449 14.2841L1.13789 13.9681L1.51712 14.2841L1.39071 13.7785L1.76994 13.5257H1.2643Z" fill="white"/>
<path d="M10.5554 6.88916L10.429 7.3948H9.92334L10.3026 7.64763L10.1762 8.15327L10.5554 7.83724L10.9978 8.15327L10.8082 7.64763L11.2507 7.3948H10.745L10.5554 6.88916Z" fill="white"/>
<path d="M10.682 11.5665L10.5556 11.124L10.366 11.5665H9.86035L10.3028 11.8825L10.1132 12.3881L10.5556 12.0721L10.9348 12.3881L10.8084 11.8825L11.1877 11.5665H10.682Z" fill="white"/>
<path d="M6.82636 6.88916L6.63675 7.3948H6.1311L6.57354 7.64763L6.38393 8.15327L6.82636 7.83724L7.2056 8.15327L7.07918 7.64763L7.45842 7.3948H6.95277L6.82636 6.88916Z" fill="white"/>
<path d="M6.88957 11.5665L6.76316 11.124L6.63675 11.5665H6.1311L6.51034 11.8825L6.38393 12.3881L6.76316 12.0721L7.14239 12.3881L7.01598 11.8825L7.39521 11.5665H6.88957Z" fill="white"/>
<path d="M3.03413 6.7627L2.84451 7.20513H2.33887L2.78131 7.52116L2.59169 8.0268L3.03413 7.71078L3.41336 8.0268L3.28695 7.52116L3.66618 7.20513H3.16054L3.03413 6.7627Z" fill="white"/>
<path d="M3.16054 11.4397L2.97092 10.9341L2.84451 11.4397H2.33887L2.7181 11.7558L2.59169 12.1982L2.97092 11.8822L3.41336 12.1982L3.22374 11.7558L3.66618 11.4397H3.16054Z" fill="white"/>
<path d="M12.4516 4.61377L12.3252 5.05621H11.8196L12.1988 5.37223L12.0724 5.87788L12.4516 5.56185L12.8941 5.87788L12.7045 5.37223L13.1469 5.05621H12.6413L12.4516 4.61377Z" fill="white"/>
<path d="M6.82639 2.6543L6.69998 3.09674H6.19434L6.57357 3.41276L6.44716 3.8552L6.82639 3.60238L7.26883 3.8552L7.07921 3.41276L7.52165 3.09674H7.01601L6.82639 2.6543Z" fill="white"/>
<path d="M10.6186 2.6543L10.429 3.09674H9.98657L10.3658 3.41276L10.1762 3.8552L10.6186 3.60238L10.9979 3.8552L10.8714 3.41276L11.2507 3.09674H10.745L10.6186 2.6543Z" fill="white"/>
<path d="M12.4516 0.378906L12.3252 0.88455H11.8196L12.1988 1.13737L12.0724 1.64301L12.4516 1.32699L12.8941 1.64301L12.7045 1.13737L13.1469 0.88455H12.6413L12.4516 0.378906Z" fill="white"/>
<path d="M12.4516 8.91162L12.3252 9.41726H11.8196L12.0092 9.54368L12.1988 9.67009L12.0724 10.1757L12.4516 9.8597L12.8941 10.1757L12.7045 9.67009L12.8941 9.54368L13.1469 9.41726H12.6413L12.4516 8.91162Z" fill="white"/>
<path d="M12.6413 13.5257L12.4516 13.02L12.3252 13.5257H11.8196L12.1988 13.7785L12.0724 14.2841L12.4516 13.9681L12.8941 14.2841L12.7045 13.7785L13.1469 13.5257H12.6413Z" fill="white"/>
</g>
<defs>
<clipPath id="clip0_1113_7937">
<rect width="28" height="28" fill="white"/>
</clipPath>
</defs>
</svg>
