<svg xmlns="http://www.w3.org/2000/svg" width="36.116" height="36.167" viewBox="0 0 36.116 36.167">
  <path id="call" d="M36.116,29.9a4.348,4.348,0,0,1-.427,1.862A7.049,7.049,0,0,1,34.527,33.5a7.7,7.7,0,0,1-2.8,2.016,8.579,8.579,0,0,1-3.331.649,14.237,14.237,0,0,1-5.569-1.247,30.006,30.006,0,0,1-5.877-3.383,49.116,49.116,0,0,1-5.6-4.783,48.542,48.542,0,0,1-4.766-5.586A30.457,30.457,0,0,1,3.23,15.342,14.389,14.389,0,0,1,2,9.756a8.838,8.838,0,0,1,.615-3.3A7.863,7.863,0,0,1,4.58,3.606,5.006,5.006,0,0,1,8.133,2a3.21,3.21,0,0,1,1.384.308,2.785,2.785,0,0,1,1.145.957l3.963,5.586a5.847,5.847,0,0,1,.683,1.2,2.7,2.7,0,0,1,.239,1.042,2.319,2.319,0,0,1-.359,1.213,5.811,5.811,0,0,1-.957,1.213l-1.3,1.35a.914.914,0,0,0-.273.683,1.551,1.551,0,0,0,.051.393c.051.137.1.239.137.342a14.177,14.177,0,0,0,1.589,2.187c.769.888,1.589,1.794,2.477,2.7.923.905,1.811,1.743,2.716,2.511a13.112,13.112,0,0,0,2.2,1.572c.085.034.188.085.308.137a1.18,1.18,0,0,0,.427.068.94.94,0,0,0,.7-.29l1.3-1.281a5.242,5.242,0,0,1,1.23-.957,2.275,2.275,0,0,1,1.213-.359,2.726,2.726,0,0,1,1.042.222,6.608,6.608,0,0,1,1.2.666L34.9,27.472a2.591,2.591,0,0,1,.94,1.093A3.5,3.5,0,0,1,36.116,29.9Z" transform="translate(-1 -1)" fill="none" stroke="#AB823E" stroke-width="2"/>
</svg>
