<svg xmlns="http://www.w3.org/2000/svg" width="61" height="61" viewBox="0 0 61 61">
  <g id="Group_14343" data-name="Group 14343" transform="translate(-960 -1441)">
    <circle id="Ellipse_191" data-name="Ellipse 191" cx="30.5" cy="30.5" r="30.5" transform="translate(960 1441)" fill="#f2f2f2"/>
    <g id="instagram-svgrepo-com" transform="translate(975 1456)">
      <path id="Path_51379" data-name="Path 51379" d="M13.754,21.509A7.754,7.754,0,1,0,6,13.754,7.754,7.754,0,0,0,13.754,21.509Zm0-2.585a5.17,5.17,0,1,0-5.17-5.17A5.17,5.17,0,0,0,13.754,18.924Z" transform="translate(1.462 1.462)" fill="#AB823E" fill-rule="evenodd"/>
      <path id="Path_51380" data-name="Path 51380" d="M18.292,5a1.292,1.292,0,1,0,1.292,1.292A1.292,1.292,0,0,0,18.292,5Z" transform="translate(4.678 1.17)" fill="#AB823E"/>
      <path id="Path_51381" data-name="Path 51381" d="M1.845,5.234C1,6.893,1,9.064,1,13.407v3.619c0,4.343,0,6.514.845,8.173a7.754,7.754,0,0,0,3.389,3.389c1.659.845,3.83.845,8.173.845h3.619c4.343,0,6.514,0,8.173-.845A7.753,7.753,0,0,0,28.587,25.2c.845-1.659.845-3.83.845-8.173V13.407c0-4.343,0-6.514-.845-8.173A7.754,7.754,0,0,0,25.2,1.845C23.54,1,21.368,1,17.026,1H13.407c-4.343,0-6.514,0-8.173.845A7.754,7.754,0,0,0,1.845,5.234Zm15.18-1.649H13.407c-2.214,0-3.719,0-4.883.1a5.579,5.579,0,0,0-2.117.466A5.17,5.17,0,0,0,4.148,6.407a5.579,5.579,0,0,0-.466,2.117c-.1,1.163-.1,2.668-.1,4.883v3.619c0,2.214,0,3.719.1,4.883a5.579,5.579,0,0,0,.466,2.117,5.17,5.17,0,0,0,2.259,2.259,5.577,5.577,0,0,0,2.117.466c1.163.095,2.668.1,4.883.1h3.619c2.214,0,3.719,0,4.883-.1a5.577,5.577,0,0,0,2.117-.466,5.17,5.17,0,0,0,2.259-2.259,5.577,5.577,0,0,0,.466-2.117c.095-1.163.1-2.668.1-4.883V13.407c0-2.214,0-3.719-.1-4.883a5.577,5.577,0,0,0-.466-2.117,5.17,5.17,0,0,0-2.259-2.259,5.579,5.579,0,0,0-2.117-.466C20.745,3.587,19.24,3.585,17.026,3.585Z" fill="#AB823E" fill-rule="evenodd"/>
    </g>
  </g>
</svg>
