<svg xmlns="http://www.w3.org/2000/svg" width="61" height="61" viewBox="0 0 61 61">
  <g id="Group_14342" data-name="Group 14342" transform="translate(-1039 -1441)">
    <circle id="Ellipse_192" data-name="Ellipse 192" cx="30.5" cy="30.5" r="30.5" transform="translate(1039 1441)" fill="#f2f2f2"/>
    <g id="Icons" transform="translate(1056 1459)">
      <g id="Color-">
        <path id="LinkedIn" d="M729.976,290.433h-6.183v-8.941c0-2.34-.967-3.938-3.094-3.938a3.12,3.12,0,0,0-2.952,2.117,3.923,3.923,0,0,0-.134,1.412v9.349h-6.125s.079-15.838,0-17.277h6.125v2.712c.362-1.186,2.32-2.878,5.443-2.878,3.875,0,6.92,2.485,6.92,7.836v9.607Zm-24.683-19.438h-.039A3.014,3.014,0,0,1,702,268a3.326,3.326,0,1,1,3.293,2.995Zm-2.587,2.161h5.453v17.277h-5.453V273.156Z" transform="translate(-702 -265)" fill="#AB823E" fill-rule="evenodd"/>
      </g>
    </g>
  </g>
</svg>
