<svg xmlns="http://www.w3.org/2000/svg" width="33.001" height="44" viewBox="0 0 33.001 44">
  <path id="location-pin-svgrepo-com" d="M20.657-.011A16.949,16.949,0,0,0,4,16.77C4,26.3,12.854,36.044,18.809,42.893a3.363,3.363,0,0,0,2.171,1.1h.1a3.339,3.339,0,0,0,2.166-1.1C28.839,36.469,37,25.874,37,16.77S31.043-.011,20.657-.011Zm.551,41.059a1.666,1.666,0,0,1-.18.147,1.674,1.674,0,0,1-.183-.147l-.719-.828C14.481,33.744,6.749,24.873,6.749,16.769A14.157,14.157,0,0,1,20.656,2.736c9.39,0,13.594,7.047,13.594,14.032,0,6.152-4.389,14.323-13.042,24.279Zm-.66-32.733a8.25,8.25,0,1,0,8.25,8.25A8.251,8.251,0,0,0,20.549,8.315Zm0,13.751A5.612,5.612,0,0,1,14.985,16.5a5.5,5.5,0,1,1,5.563,5.561Z" transform="translate(-4 0.011)" fill="#AB823E"/>
</svg>
