<svg xmlns="http://www.w3.org/2000/svg" width="61" height="61" viewBox="0 0 61 61">
  <g id="Group_14341" data-name="Group 14341" transform="translate(-1115 -1441)">
    <circle id="Ellipse_193" data-name="Ellipse 193" cx="30.5" cy="30.5" r="30.5" transform="translate(1115 1441)" fill="#f2f2f2"/>
    <g id="Page-1" transform="translate(1131 1459.998)">
      <g id="Dribbble-Light-Preview" transform="translate(0 0.002)">
        <g id="icons">
          <path id="twitter-_154_" data-name="twitter-[#154]" d="M12.988,7383.863a16.438,16.438,0,0,0,16.684-16.42c0-.257,0-.5-.017-.757a11.811,11.811,0,0,0,2.925-2.986,11.928,11.928,0,0,1-3.367.914,5.835,5.835,0,0,0,2.578-3.2,11.626,11.626,0,0,1-3.724,1.4,5.943,5.943,0,0,0-8.3-.243,5.721,5.721,0,0,0-1.7,5.517,16.8,16.8,0,0,1-12.085-6.03,5.723,5.723,0,0,0,1.816,7.7,5.967,5.967,0,0,1-2.662-.715v.072a5.814,5.814,0,0,0,4.7,5.658,5.923,5.923,0,0,1-2.647.086,5.851,5.851,0,0,0,5.477,4.015,11.76,11.76,0,0,1-7.282,2.474c-.466,0-.932-.029-1.4-.072a16.9,16.9,0,0,0,8.988,2.587" transform="translate(-4 -7361.001)" fill="#AB823E" fill-rule="evenodd"/>
        </g>
      </g>
    </g>
  </g>
</svg>
