<svg xmlns="http://www.w3.org/2000/svg" width="61" height="61" viewBox="0 0 61 61">
  <g id="Group_14340" data-name="Group 14340" transform="translate(-1200 -1441)">
    <circle id="Ellipse_194" data-name="Ellipse 194" cx="30.5" cy="30.5" r="30.5" transform="translate(1200 1441)" fill="#f2f2f2"/>
    <g id="Page-1" transform="translate(1214 1460.002)">
      <g id="Dribbble-Light-Preview" transform="translate(0 -0.002)">
        <g id="icons" transform="translate(0)">
          <path id="youtube-_168_" data-name="youtube-[#168]" d="M257.27,7297.933V7288.6c3.311,1.562,5.874,3.072,8.9,4.685-2.5,1.395-5.594,2.94-8.9,4.651m18.445-13.972a4.36,4.36,0,0,0-2.58-1.528c-3.045-.581-22.04-.581-25.084,0a4.393,4.393,0,0,0-2.206,1.113c-2.676,2.492-1.837,15.815-1.193,17.975a4.83,4.83,0,0,0,1.065,2.061,4.309,4.309,0,0,0,2.243,1.163c2.507.515,15.423.814,25.122.083a4.411,4.411,0,0,0,2.309-1.2c2.475-2.476,2.306-16.547.324-19.67" transform="translate(-244 -7281.997)" fill="#AB823E" fill-rule="evenodd"/>
        </g>
      </g>
    </g>
  </g>
</svg>
